<svg width="50" height="50" viewBox="0 0 50 50" fill="none" xmlns="http://www.w3.org/2000/svg">
<path d="M13.0909 9.75L9 5.68182L5.79545 8.88636L9.86364 12.9545L13.0909 9.75ZM6.81818 22.6136H0V27.1591H6.81818V22.6136ZM27.2727 0H22.7273V6.70455H27.2727V0ZM44.2045 8.88636L41 5.68182L36.9318 9.75L40.1364 12.9545L44.2045 8.88636ZM36.9091 40.0227L40.9773 44.1136L44.1818 40.9091L40.0909 36.8409L36.9091 40.0227ZM43.1818 22.6136V27.1591H50V22.6136H43.1818ZM25 11.25C17.4773 11.25 11.3636 17.3636 11.3636 24.8864C11.3636 32.4091 17.4773 38.5227 25 38.5227C32.5227 38.5227 38.6364 32.4091 38.6364 24.8864C38.6364 17.3636 32.5227 11.25 25 11.25ZM22.7273 49.7727H27.2727V43.0682H22.7273V49.7727ZM5.79545 40.8864L9 44.0909L13.0682 40L9.86364 36.7955L5.79545 40.8864Z" fill="#FFFD54"/>
</svg>
